<svg xmlns="http://www.w3.org/2000/svg" viewBox="0 0 598.75 856.4"><defs><style>.cls-1,.cls-2{fill:#fff;}.cls-2{font-size:87.38px;font-family:Gotham-Black, Gotham Black;font-weight:800;}.cls-3{letter-spacing:0em;}</style></defs><title>Recurso 5</title><g id="Capa_2" data-name="Capa 2"><g id="Capa_1-2" data-name="Capa 1"><path class="cls-1" d="M402.09,102.65c-5.38-13.06-12-25.35-21.44-36-.52.16-1,.29-1.54.45,0,3.79-.16,7.59,0,11.36.42,8.89-1.86,17.13-5.65,25.09a24.53,24.53,0,0,1-27.07,13.53C331.65,114,319.52,98,318.74,81.43c-.49-10.87,2-21.25,4.05-31.68,3.87-19.19-1.17-35-16.71-47.3-1.4-1.1-2.86-3.11-4.63-2.23-2.08,1-.68,3.25-.36,4.9,3,16.12-1.06,29.15-16.12,37.51a40,40,0,0,0-5.5,3.73c-21.87,17.41-34.22,38.92-28.59,67.88,1.31,6.75,2.67,13.43,2.25,20.35-1,16-19.61,26.89-32.65,18.41-9-5.84-12.71-15.26-13.13-26a65.44,65.44,0,0,1,4.87-28.71,4.55,4.55,0,0,0-3.87,2.06c-22.19,24-29.73,52.68-25.86,84.38,4,33,19.53,59.85,45.85,80.28,27.07,21,58.07,27.63,91.3,22.6,30.78-4.67,55.86-20.25,74.67-45.18a115.39,115.39,0,0,0,23.6-62.4C419.87,152.77,412.29,127.43,402.09,102.65ZM364.73,231c-10.22,17.77-26.71,26.27-46.2,29.76-25.4,4.55-48.9.58-69.45-16.14a55.57,55.57,0,0,1-17.33-62.22c.66-1.84.85-4.45,3.27-4.59s2.87,2.53,3.73,4.23c10.61,21.33,39,22.46,53.94,9.18,8.92-7.92,10.67-16.16,6-27.27-4.05-9.72-10.22-18.3-15.19-27.51-5.82-10.82-10.37-21.95-6.76-34.67A42.15,42.15,0,0,1,286,84.92c.84-.92,1.63-2,3-1.62s1.56,1.8,1.46,3c-1.82,21.28,12,33,26.89,44.12,10,7.44,20.67,14.15,28.51,24.14,14.78,18.85,12.06,42.85-6.53,58-14,11.41-24.56,14.17-49.47,12.45,15.66,7.2,30.5,7,45.42,3.59,15.4-3.55,27.87-11.43,35.43-27.95C373,212.81,369.75,222.21,364.73,231ZM591,364.52q-36,.39-72.06,0c-4.89,0-7.72,1.7-10.33,5.63Q473.44,423,438,475.7l-17.54,26.11c-11.73-17.47-23-34.13-34.19-50.85q-27.19-40.72-54.3-81.57c-2.21-3.35-4.77-4.87-8.92-4.85-30.88.16-61.76.08-92.64.12-1.52,0-3.59-.79-4.45.9s.86,2.95,1.72,4.23c13,19.47,26,38.86,38.92,58.33C281.1,450,295.44,471.91,310,493.71c21.92,32.88,44,65.66,65.95,98.51,13.08,19.61,25.95,39.36,39,59,4.23,6.38,5.23,6.36,9.53,0,6.25-9.16,12.41-18.35,18.56-27.57q32-48.06,64.09-96.11c1.08-1.62,2-3.51,5.17-4.51v8.44q0,81.15,0,162.28c0,7.84.48,8.38,8.12,8.38q35.13.06,70.24,0c7.44,0,8-.58,8-7.94q0-161.06.12-322.14C598.75,366.1,596.69,364.46,591,364.52ZM323,562.94a16.48,16.48,0,0,0-2.89-9.62c-16.5-24.86-32.79-49.85-49.29-74.71-23.86-35.95-48-71.71-71.6-107.8-3.13-4.79-6.32-6.29-11.69-6.27q-89,.21-178,.1c-9.48,0-9.48,0-9.48,9.26q0,79.62,0,159.25Q0,613.39,0,693.6c0,8.14.32,8.5,8.58,8.5q33,.06,66,0c10.83,0,10.85,0,10.85-10.65q0-114.76,0-229.5c0-2.41.1-4.84,0-7.26-.1-4.09,1.9-5.82,5.91-5.82,17.15.08,34.31.06,51.46.06a8.12,8.12,0,0,1,7.49,4.07c8.55,13.18,17.37,26.19,26.07,39.28q20.25,30.45,40.44,61c3.13,4.75,2.63,5.49-3.16,5.79-2,.1-4.05.06-6.06.06q-41.77,0-83.57,0c-9.07,0-9.43.37-9.45,9.65q0,33.9,0,67.83c0,7.52.56,8.1,7.76,8.1q96.58,0,193.16.06c5.53,0,7.5-1.88,7.46-7.36C322.83,612.59,322.91,587.77,323,562.94Z"/><text class="cls-2" transform="translate(109.76 841.28)">FU<tspan class="cls-3" x="122.85" y="0">E</tspan><tspan x="180.7" y="0">G</tspan><tspan class="cls-3" x="247.89" y="0">O</tspan><tspan x="320.07" y="0">S</tspan></text></g></g></svg>